<svg class="main-svg" xmlns="http://www.w3.org/2000/svg" xmlns:xlink="http://www.w3.org/1999/xlink" width="2400" height="1600" style="" viewBox="0 0 1200 800"><rect x="0" y="0" width="1200" height="800" style="fill: rgb(243, 243, 238); fill-opacity: 1;"/><defs id="defs-f8cb23"><g class="clips"><clipPath id="clipf8cb23xyplot" class="plotclip"><rect width="1039" height="572"/></clipPath><clipPath class="axesclip" id="clipf8cb23x"><rect x="81" y="0" width="1039" height="800"/></clipPath><clipPath class="axesclip" id="clipf8cb23y"><rect x="0" y="148" width="1200" height="572"/></clipPath><clipPath class="axesclip" id="clipf8cb23xy"><rect x="81" y="148" width="1039" height="572"/></clipPath></g><g class="gradients"/><g class="patterns"/></defs><g class="bglayer"/><g class="layer-below"><g class="imagelayer"/><g class="shapelayer"/></g><g class="cartesianlayer"><g class="subplot xy"><g class="layer-subplot"><g class="shapelayer"/><g class="imagelayer"/></g><g class="minor-gridlayer"><g class="x"/><g class="y"/></g><g class="gridlayer"><g class="x"><path class="xgrid crisp" transform="translate(137.95,0)" d="M0,148v572" style="stroke: rgb(94, 82, 64); stroke-opacity: 0.2; stroke-width: 1px;"/><path class="xgrid crisp" transform="translate(369.23,0)" d="M0,148v572" style="stroke: rgb(94, 82, 64); stroke-opacity: 0.2; stroke-width: 1px;"/><path class="xgrid crisp" transform="translate(600.5,0)" d="M0,148v572" style="stroke: rgb(94, 82, 64); stroke-opacity: 0.2; stroke-width: 1px;"/><path class="xgrid crisp" transform="translate(831.78,0)" d="M0,148v572" style="stroke: rgb(94, 82, 64); stroke-opacity: 0.2; stroke-width: 1px;"/><path class="xgrid crisp" transform="translate(1063.05,0)" d="M0,148v572" style="stroke: rgb(94, 82, 64); stroke-opacity: 0.2; stroke-width: 1px;"/></g><g class="y"><path class="ygrid crisp" transform="translate(0,605.85)" d="M81,0h1039" style="stroke: rgb(94, 82, 64); stroke-opacity: 0.2; stroke-width: 1px;"/><path class="ygrid crisp" transform="translate(0,501.16)" d="M81,0h1039" style="stroke: rgb(94, 82, 64); stroke-opacity: 0.2; stroke-width: 1px;"/><path class="ygrid crisp" transform="translate(0,396.47)" d="M81,0h1039" style="stroke: rgb(94, 82, 64); stroke-opacity: 0.2; stroke-width: 1px;"/><path class="ygrid crisp" transform="translate(0,291.77)" d="M81,0h1039" style="stroke: rgb(94, 82, 64); stroke-opacity: 0.2; stroke-width: 1px;"/><path class="ygrid crisp" transform="translate(0,187.07999999999998)" d="M81,0h1039" style="stroke: rgb(94, 82, 64); stroke-opacity: 0.2; stroke-width: 1px;"/></g></g><g class="zerolinelayer"><path class="yzl zl crisp" transform="translate(0,710.55)" d="M81,0h1039" style="stroke: rgb(68, 68, 68); stroke-opacity: 1; stroke-width: 1px;"/></g><g class="layer-between"><g class="shapelayer"/><g class="imagelayer"/></g><path class="xlines-below"/><path class="ylines-below"/><g class="overlines-below"/><g class="xaxislayer-below"/><g class="yaxislayer-below"/><g class="overaxes-below"/><g class="overplot"><g class="xy" transform="translate(81,148)" clip-path="url(#clipf8cb23xyplot)"><g class="scatterlayer mlayer"><g class="trace scatter trace11c5da" style="stroke-miterlimit: 2; opacity: 1;"><g class="fills"/><g class="errorbars"/><g class="lines"><path class="js-line" d="M56.95,538.4L288.23,502.02L519.5,431.13L750.78,299.39L982.05,33.6" style="vector-effect: none; fill: none; stroke: rgb(31, 184, 205); stroke-opacity: 1; stroke-width: 3px; opacity: 1;"/></g><g class="points"><path class="point" transform="translate(56.95,538.4)" d="M4,0A4,4 0 1,1 0,-4A4,4 0 0,1 4,0Z" style="opacity: 1; stroke-width: 0px; fill: rgb(31, 184, 205); fill-opacity: 1;"/><path class="point" transform="translate(288.23,502.02)" d="M4,0A4,4 0 1,1 0,-4A4,4 0 0,1 4,0Z" style="opacity: 1; stroke-width: 0px; fill: rgb(31, 184, 205); fill-opacity: 1;"/><path class="point" transform="translate(519.5,431.13)" d="M4,0A4,4 0 1,1 0,-4A4,4 0 0,1 4,0Z" style="opacity: 1; stroke-width: 0px; fill: rgb(31, 184, 205); fill-opacity: 1;"/><path class="point" transform="translate(750.78,299.39)" d="M4,0A4,4 0 1,1 0,-4A4,4 0 0,1 4,0Z" style="opacity: 1; stroke-width: 0px; fill: rgb(31, 184, 205); fill-opacity: 1;"/><path class="point" transform="translate(982.05,33.6)" d="M4,0A4,4 0 1,1 0,-4A4,4 0 0,1 4,0Z" style="opacity: 1; stroke-width: 0px; fill: rgb(31, 184, 205); fill-opacity: 1;"/></g><g class="text"/></g></g></g></g><path class="xlines-above crisp" d="" style="fill: none; stroke-width: 1px; stroke: rgb(0, 0, 0); stroke-opacity: 0;"/><path class="ylines-above crisp" d="" style="fill: none; stroke-width: 1px; stroke: rgb(0, 0, 0); stroke-opacity: 0;"/><g class="overlines-above"/><g class="xaxislayer-above"><path class="xtick ticks crisp" d="M0,721v5" transform="translate(137.95,0)" style="stroke: rgb(94, 82, 64); stroke-opacity: 0.2; stroke-width: 1px;"/><path class="xtick ticks crisp" d="M0,721v5" transform="translate(369.23,0)" style="stroke: rgb(94, 82, 64); stroke-opacity: 0.2; stroke-width: 1px;"/><path class="xtick ticks crisp" d="M0,721v5" transform="translate(600.5,0)" style="stroke: rgb(94, 82, 64); stroke-opacity: 0.2; stroke-width: 1px;"/><path class="xtick ticks crisp" d="M0,721v5" transform="translate(831.78,0)" style="stroke: rgb(94, 82, 64); stroke-opacity: 0.2; stroke-width: 1px;"/><path class="xtick ticks crisp" d="M0,721v5" transform="translate(1063.05,0)" style="stroke: rgb(94, 82, 64); stroke-opacity: 0.2; stroke-width: 1px;"/><g class="xtick"><text text-anchor="middle" x="0" y="745.2" transform="translate(137.95,0)" style="font-family: 'FK Grotesk Neue'; font-size: 16px; fill: rgb(98, 108, 113); fill-opacity: 1; white-space: pre; opacity: 1;">1</text></g><g class="xtick"><text text-anchor="middle" x="0" y="745.2" style="font-family: 'FK Grotesk Neue'; font-size: 16px; fill: rgb(98, 108, 113); fill-opacity: 1; white-space: pre; opacity: 1;" transform="translate(369.23,0)">2</text></g><g class="xtick"><text text-anchor="middle" x="0" y="745.2" style="font-family: 'FK Grotesk Neue'; font-size: 16px; fill: rgb(98, 108, 113); fill-opacity: 1; white-space: pre; opacity: 1;" transform="translate(600.5,0)">3</text></g><g class="xtick"><text text-anchor="middle" x="0" y="745.2" style="font-family: 'FK Grotesk Neue'; font-size: 16px; fill: rgb(98, 108, 113); fill-opacity: 1; white-space: pre; opacity: 1;" transform="translate(831.78,0)">4</text></g><g class="xtick"><text text-anchor="middle" x="0" y="745.2" style="font-family: 'FK Grotesk Neue'; font-size: 16px; fill: rgb(98, 108, 113); fill-opacity: 1; white-space: pre; opacity: 1;" transform="translate(1063.05,0)">5</text></g></g><g class="yaxislayer-above"><path class="ytick ticks crisp" d="M80,0h-5" transform="translate(0,710.55)" style="stroke: rgb(94, 82, 64); stroke-opacity: 0.2; stroke-width: 1px;"/><path class="ytick ticks crisp" d="M80,0h-5" transform="translate(0,605.85)" style="stroke: rgb(94, 82, 64); stroke-opacity: 0.2; stroke-width: 1px;"/><path class="ytick ticks crisp" d="M80,0h-5" transform="translate(0,501.16)" style="stroke: rgb(94, 82, 64); stroke-opacity: 0.2; stroke-width: 1px;"/><path class="ytick ticks crisp" d="M80,0h-5" transform="translate(0,396.47)" style="stroke: rgb(94, 82, 64); stroke-opacity: 0.2; stroke-width: 1px;"/><path class="ytick ticks crisp" d="M80,0h-5" transform="translate(0,291.77)" style="stroke: rgb(94, 82, 64); stroke-opacity: 0.2; stroke-width: 1px;"/><path class="ytick ticks crisp" d="M80,0h-5" transform="translate(0,187.07999999999998)" style="stroke: rgb(94, 82, 64); stroke-opacity: 0.2; stroke-width: 1px;"/><g class="ytick"><text text-anchor="end" x="71.8" y="5.6" transform="translate(0,710.55)" style="font-family: 'FK Grotesk Neue'; font-size: 16px; fill: rgb(98, 108, 113); fill-opacity: 1; white-space: pre; opacity: 1;">0</text></g><g class="ytick"><text text-anchor="end" x="71.8" y="5.6" style="font-family: 'FK Grotesk Neue'; font-size: 16px; fill: rgb(98, 108, 113); fill-opacity: 1; white-space: pre; opacity: 1;" transform="translate(0,605.85)">100</text></g><g class="ytick"><text text-anchor="end" x="71.8" y="5.6" style="font-family: 'FK Grotesk Neue'; font-size: 16px; fill: rgb(98, 108, 113); fill-opacity: 1; white-space: pre; opacity: 1;" transform="translate(0,501.16)">200</text></g><g class="ytick"><text text-anchor="end" x="71.8" y="5.6" style="font-family: 'FK Grotesk Neue'; font-size: 16px; fill: rgb(98, 108, 113); fill-opacity: 1; white-space: pre; opacity: 1;" transform="translate(0,396.47)">300</text></g><g class="ytick"><text text-anchor="end" x="71.8" y="5.6" style="font-family: 'FK Grotesk Neue'; font-size: 16px; fill: rgb(98, 108, 113); fill-opacity: 1; white-space: pre; opacity: 1;" transform="translate(0,291.77)">400</text></g><g class="ytick"><text text-anchor="end" x="71.8" y="5.6" style="font-family: 'FK Grotesk Neue'; font-size: 16px; fill: rgb(98, 108, 113); fill-opacity: 1; white-space: pre; opacity: 1;" transform="translate(0,187.07999999999998)">500</text></g></g><g class="overaxes-above"/></g></g><g class="polarlayer"/><g class="smithlayer"/><g class="ternarylayer"/><g class="geolayer"/><g class="funnelarealayer"/><g class="pielayer"/><g class="iciclelayer"/><g class="treemaplayer"/><g class="sunburstlayer"/><g class="glimages"/><defs id="topdefs-f8cb23"><g class="clips"/></defs><g class="layer-above"><g class="imagelayer"/><g class="shapelayer"/></g><g class="infolayer"><g class="g-gtitle"><text class="gtitle" x="600" y="68" text-anchor="middle" dy="-0.3em" style="opacity: 1; font-family: 'FK Grotesk Neue'; font-size: 28px; fill: rgb(19, 52, 59); fill-opacity: 1; font-weight: 1000; white-space: pre;">Revenue Growth</text></g><g class="g-xtitle"><text class="xtitle" x="600.5" y="787" text-anchor="middle" style="opacity: 1; font-family: 'FK Grotesk Neue'; font-size: 19px; fill: rgb(19, 52, 59); fill-opacity: 1; font-weight: 600; white-space: pre;">Year</text></g><g class="g-ytitle"><text class="ytitle" transform="rotate(-90,18.990625,434)" x="18.990625" y="434" text-anchor="middle" style="opacity: 1; font-family: 'FK Grotesk Neue'; font-size: 19px; fill: rgb(19, 52, 59); fill-opacity: 1; font-weight: 600; white-space: pre;">Revenue (£k)</text></g></g></svg>